<svg width="25" height="24" viewBox="0 0 25 24" fill="none" xmlns="http://www.w3.org/2000/svg">
<g clip-path="url(#clip0_7731_88)">
<path d="M20.295 4.19721C18.4166 2.32648 15.9193 1.19914 13.2681 1.02511C10.6169 0.851077 7.99248 1.64222 5.88362 3.25121C3.77476 4.8602 2.32517 7.17737 1.80479 9.77123C1.2844 12.3651 1.72869 15.0588 3.05491 17.3508L1.50098 22.9996L7.30769 21.4838C8.91375 22.3545 10.7133 22.8107 12.5421 22.8108H12.5467C14.7128 22.8106 16.8303 22.1711 18.6314 20.9732C20.4325 19.7752 21.8364 18.0725 22.6657 16.0804C23.4949 14.0882 23.7123 11.896 23.2903 9.7809C22.8684 7.66578 21.826 5.72267 20.295 4.19721ZM12.5467 20.9697H12.5432C10.9128 20.9698 9.31232 20.5335 7.90943 19.7065L7.57685 19.5103L4.13065 20.4096L5.05059 17.0657L4.83381 16.723C3.76086 15.0209 3.28651 13.012 3.48534 11.0123C3.68417 9.01259 4.54489 7.13533 5.93221 5.67567C7.31953 4.21601 9.15478 3.25671 11.1494 2.94858C13.1441 2.64044 15.185 3.00095 16.9515 3.97343C18.7179 4.94591 20.1096 6.47521 20.9078 8.32091C21.706 10.1666 21.8655 12.2241 21.3611 14.1698C20.8567 16.1156 19.7172 17.8393 18.1215 19.0701C16.5258 20.3008 14.5646 20.9687 12.546 20.9688L12.5467 20.9697Z" fill="#E0E0E0"/>
<path d="M2.00342 22.3723L3.48642 16.9807C2.33756 14.9962 1.87845 12.6898 2.18027 10.4191C2.48209 8.14835 3.52798 6.0402 5.15578 4.42146C6.78358 2.80273 8.90235 1.76384 11.1836 1.46588C13.4648 1.16792 15.7811 1.62753 17.7732 2.77345C19.7654 3.91937 21.3221 5.68758 22.2021 7.80393C23.0821 9.92028 23.2362 12.2665 22.6404 14.4789C22.0447 16.6913 20.7324 18.6462 18.907 20.0406C17.0817 21.4349 14.8452 22.1908 12.5444 22.191H12.5398C10.795 22.1907 9.07807 21.7554 7.54562 20.925L2.0043 22.3714L2.00342 22.3723Z" fill="url(#paint0_linear_7731_88)"/>
<path fill-rule="evenodd" clip-rule="evenodd" d="M9.84048 7.27297C9.63782 6.82438 9.42434 6.81536 9.23163 6.80766C9.07384 6.80084 8.89328 6.80128 8.71317 6.80128C8.57605 6.80488 8.44117 6.83669 8.31699 6.89469C8.19282 6.9527 8.08204 7.03565 7.99162 7.13833C7.68567 7.42672 7.44344 7.7754 7.28036 8.16215C7.11727 8.5489 7.03692 8.96524 7.04443 9.38462C7.04443 10.71 8.01416 11.9906 8.14941 12.1704C8.28466 12.3501 10.0213 15.1566 12.7713 16.2361C15.0569 17.1333 15.5221 16.9549 16.0182 16.91C16.5144 16.8651 17.6189 16.2586 17.8445 15.6296C18.0702 15.0006 18.07 14.4615 18.0023 14.3489C17.9347 14.2363 17.7544 14.1694 17.4836 14.0345C17.2129 13.8996 15.883 13.248 15.6348 13.1582C15.3866 13.0684 15.2063 13.0236 15.0259 13.2933C14.8456 13.563 14.3274 14.1692 14.1694 14.3493C14.0113 14.5295 13.8536 14.5517 13.5831 14.4171C12.7854 14.1005 12.0492 13.6482 11.4073 13.0803C10.8158 12.5361 10.3085 11.9075 9.90214 11.2151C9.74434 10.9458 9.88512 10.7997 10.021 10.6651C10.1426 10.5445 10.2915 10.3507 10.427 10.1934C10.538 10.0572 10.629 9.90602 10.6973 9.74433C10.7333 9.67005 10.7502 9.58799 10.7463 9.50559C10.7424 9.42318 10.718 9.34304 10.6752 9.27242C10.6069 9.13755 10.0809 7.80562 9.84048 7.27297Z" fill="white"/>
<path d="M20.2058 4.16284C18.3494 2.31232 15.8806 1.19677 13.2593 1.02404C10.6379 0.851306 8.04296 1.63317 5.95778 3.22396C3.8726 4.81475 2.43946 7.10595 1.92537 9.67069C1.41128 12.2354 1.85132 14.8987 3.16348 17.1644L1.62744 22.7494L7.36742 21.251C8.95503 22.1117 10.7339 22.5627 12.5417 22.5629H12.5463C14.6877 22.563 16.7811 21.931 18.5618 20.7469C20.3424 19.5627 21.7304 17.8795 22.5502 15.9101C23.3701 13.9407 23.5849 11.7734 23.1676 9.68248C22.7503 7.59152 21.7196 5.67068 20.2058 4.16284ZM12.5463 20.7429H12.5439C10.9322 20.743 9.35003 20.3117 7.96319 19.4942L7.63437 19.3001L4.22728 20.1891L5.13662 16.8831L4.92249 16.5443C3.86188 14.8617 3.39303 12.8758 3.58964 10.899C3.78625 8.92222 4.63718 7.0665 6.00864 5.62361C7.38011 4.18071 9.19435 3.23245 11.1662 2.92791C13.138 2.62336 15.1555 2.97979 16.9017 3.94117C18.6478 4.90255 20.0235 6.41436 20.8126 8.23894C21.6016 10.0635 21.7592 12.0974 21.2605 14.0209C20.7619 15.9443 19.6353 17.6483 18.0579 18.8649C16.4805 20.0814 14.5417 20.7417 12.5463 20.7418V20.7429Z" fill="white"/>
</g>
<defs>
<linearGradient id="paint0_linear_7731_88" x1="12.5002" y1="22.3723" x2="12.5002" y2="1.37744" gradientUnits="userSpaceOnUse">
<stop stop-color="#20B038"/>
<stop offset="1" stop-color="#60D66A"/>
</linearGradient>
<clipPath id="clip0_7731_88">
<rect width="24" height="24" fill="white" transform="translate(0.5)"/>
</clipPath>
</defs>
</svg>
